<svg xmlns="http://www.w3.org/2000/svg" width="474.814" height="162.559" viewBox="0 0 474.814 162.559"><g id="Group_19" data-name="Group 19" transform="translate(-398.765 -43.883)"><g id="Group_4" data-name="Group 4"><path id="Path_4" data-name="Path 4" d="M518.124,151.407a80.859,80.859,0,0,1-10.151,20.847c-6.108,8.926-12.452,17.834-22.441,18.015-9.814.182-12.97-5.824-24.186-5.824s-14.739,5.643-24.019,6.006c-9.644.362-16.99-9.656-23.147-18.546-12.592-18.206-22.2-51.439-9.282-73.857A35.845,35.845,0,0,1,435.221,79.67c9.474-.181,18.4,6.363,24.2,6.363s16.641-7.871,28.056-6.72c4.776.2,18.19,1.929,26.811,14.542-.689.434-16.012,9.352-15.844,27.9.2,22.187,19.462,29.56,19.684,29.655M479.991,67.284c5.134-6.2,8.576-14.823,7.629-23.4-7.373.272-16.308,4.909-21.593,11.1-4.742,5.485-8.9,14.261-7.774,22.663C466.47,78.289,474.878,73.47,479.991,67.284Z" fill="#fff"></path></g><text id="Authorised_Reseller" data-name="Authorised Reseller" transform="translate(561.578 125.442)" fill="#fff" font-size="65.191" font-family="Helvetica"><tspan x="0" y="0">Authorised</tspan><tspan x="0" y="65.191">Reseller</tspan></text></g></svg>